Mailpile-Normal.ufo
<glyph name="quotedbl" format="1">
  <advance width="811"/>
  <unicode hex="0022"/>
  <outline>
    <contour>
      <point x="673" y="1495" type="line"/>
      <point x="540" y="1495" type="line"/>
      <point x="381" y="1085" type="line"/>
      <point x="514" y="1085" type="line"/>
    </contour>
    <contour>
      <point x="386" y="1495" type="line"/>
      <point x="253" y="1495" type="line"/>
      <point x="94.9999" y="1084" type="line"/>
      <point x="226" y="1084" type="line"/>
    </contour>
  </outline>
</glyph>
<glyph name="dollar" format="1">
  <advance width="1116"/>
  <unicode hex="0024"/>
  <outline>
    <contour>
      <point x="641" y="1623" type="line"/>
      <point x="503" y="1623" type="line"/>
      <point x="503" y="-134" type="line"/>
      <point x="641" y="-134" type="line"/>
    </contour>
    <contour>
      <point x="1000" y="1169" type="line"/>
      <point x="999" y="1265" type="line"/>
      <point x="998" y="1370"/>
      <point x="949" y="1421"/>
      <point x="885" y="1458" type="curve" smooth="yes"/>
      <point x="785" y="1516"/>
      <point x="640" y="1529"/>
      <point x="552" y="1529" type="curve" smooth="yes"/>
      <point x="256" y="1529"/>
      <point x="65" y="1390"/>
      <point x="65" y="1151" type="curve" smooth="yes"/>
      <point x="65" y="888"/>
      <point x="286" y="791"/>
      <point x="522" y="704" type="curve" smooth="yes"/>
      <point x="689" y="643"/>
      <point x="883" y="572"/>
      <point x="883" y="371" type="curve" smooth="yes"/>
      <point x="883" y="213"/>
      <point x="713" y="115"/>
      <point x="552" y="115" type="curve" smooth="yes"/>
      <point x="340" y="115"/>
      <point x="210" y="251"/>
      <point x="141" y="376" type="curve"/>
      <point x="13" y="308" type="line"/>
      <point x="105" y="116"/>
      <point x="282" y="-20"/>
      <point x="541" y="-20" type="curve" smooth="yes"/>
      <point x="803" y="-20"/>
      <point x="1032" y="140"/>
      <point x="1032" y="398" type="curve" smooth="yes"/>
      <point x="1032" y="697"/>
      <point x="781" y="765"/>
      <point x="567" y="846" type="curve" smooth="yes"/>
      <point x="363" y="924"/>
      <point x="215" y="992"/>
      <point x="215" y="1159" type="curve" smooth="yes"/>
      <point x="215" y="1322"/>
      <point x="357" y="1394"/>
      <point x="542" y="1394" type="curve" smooth="yes"/>
      <point x="644" y="1394"/>
      <point x="741" y="1375"/>
      <point x="810" y="1341" type="curve" smooth="yes"/>
      <point x="858" y="1317"/>
      <point x="872" y="1290"/>
      <point x="872" y="1231" type="curve" smooth="yes"/>
      <point x="872" y="1172" type="line"/>
    </contour>
  </outline>
</glyph>
<glyph name="percent" format="1">
  <advance width="1825"/>
  <unicode hex="0025"/>
  <outline>
    <contour>
      <point x="1581" y="1610" type="line"/>
      <point x="210" y="38" type="line"/>
      <point x="298" y="-54" type="line"/>
      <point x="1682" y="1530" type="line"/>
    </contour>
    <contour>
      <point x="502" y="728" type="line"/>
      <point x="605" y="728"/>
      <point x="697" y="768"/>
      <point x="778" y="847" type="curve" smooth="yes"/>
      <point x="859" y="926"/>
      <point x="900" y="1019"/>
      <point x="900" y="1125" type="curve" smooth="yes"/>
      <point x="900" y="1230"/>
      <point x="859" y="1323"/>
      <point x="778" y="1403" type="curve" smooth="yes"/>
      <point x="697" y="1483"/>
      <point x="605" y="1523"/>
      <point x="502" y="1523" type="curve" smooth="yes"/>
      <point x="393" y="1523"/>
      <point x="299" y="1482"/>
      <point x="221" y="1400" type="curve" smooth="yes"/>
      <point x="143" y="1318"/>
      <point x="104" y="1227"/>
      <point x="104" y="1126" type="curve" smooth="yes"/>
      <point x="104" y="1023"/>
      <point x="143" y="931"/>
      <point x="221" y="850" type="curve" smooth="yes"/>
      <point x="299" y="769"/>
      <point x="392" y="729"/>
      <point x="500" y="729" type="curve"/>
    </contour>
    <contour>
      <point x="572" y="1403"/>
      <point x="636" y="1375"/>
      <point x="692" y="1318" type="curve" smooth="yes"/>
      <point x="748" y="1261"/>
      <point x="776" y="1197"/>
      <point x="776" y="1125" type="curve" smooth="yes"/>
      <point x="776" y="1054"/>
      <point x="748" y="989.999"/>
      <point x="692" y="933" type="curve" smooth="yes"/>
      <point x="636" y="876"/>
      <point x="572" y="847"/>
      <point x="500" y="847" type="curve" smooth="yes"/>
      <point x="429" y="847"/>
      <point x="365" y="876"/>
      <point x="308" y="933" type="curve" smooth="yes"/>
      <point x="251" y="989.999"/>
      <point x="222" y="1054"/>
      <point x="222" y="1125" type="curve" smooth="yes"/>
      <point x="222" y="1197"/>
      <point x="251" y="1261"/>
      <point x="308" y="1318" type="curve" smooth="yes"/>
      <point x="365" y="1375"/>
      <point x="429" y="1403"/>
      <point x="500" y="1403" type="curve" smooth="yes"/>
    </contour>
    <contour>
      <point x="1320" y="764" type="line"/>
      <point x="1218" y="764"/>
      <point x="1126" y="725"/>
      <point x="1045" y="646" type="curve" smooth="yes"/>
      <point x="964" y="567"/>
      <point x="923" y="474"/>
      <point x="923" y="367" type="curve" smooth="yes"/>
      <point x="923" y="263"/>
      <point x="963" y="171"/>
      <point x="1043" y="91" type="curve" smooth="yes"/>
      <point x="1123" y="11"/>
      <point x="1215" y="-29"/>
      <point x="1319" y="-29" type="curve" smooth="yes"/>
      <point x="1426" y="-29"/>
      <point x="1519" y="11"/>
      <point x="1598" y="91" type="curve" smooth="yes"/>
      <point x="1677" y="171"/>
      <point x="1717" y="263"/>
      <point x="1717" y="367" type="curve" smooth="yes"/>
      <point x="1717" y="474"/>
      <point x="1677" y="567"/>
      <point x="1597" y="646" type="curve" smooth="yes"/>
      <point x="1517" y="725"/>
      <point x="1425" y="765"/>
      <point x="1320" y="765" type="curve"/>
    </contour>
    <contour>
      <point x="1247" y="91"/>
      <point x="1183" y="119"/>
      <point x="1127" y="176" type="curve" smooth="yes"/>
      <point x="1071" y="233"/>
      <point x="1043" y="297"/>
      <point x="1043" y="368" type="curve" smooth="yes"/>
      <point x="1043" y="438"/>
      <point x="1071" y="502"/>
      <point x="1127" y="559" type="curve" smooth="yes"/>
      <point x="1183" y="616"/>
      <point x="1247" y="645"/>
      <point x="1320" y="645" type="curve" smooth="yes"/>
      <point x="1392" y="645"/>
      <point x="1456" y="616"/>
      <point x="1512" y="559" type="curve" smooth="yes"/>
      <point x="1568" y="502"/>
      <point x="1596" y="438"/>
      <point x="1596" y="367" type="curve" smooth="yes"/>
      <point x="1596" y="295"/>
      <point x="1568" y="231"/>
      <point x="1512" y="175" type="curve" smooth="yes"/>
      <point x="1456" y="119"/>
      <point x="1392" y="91"/>
      <point x="1320" y="91" type="curve" smooth="yes"/>
    </contour>
  </outline>
</glyph>
<glyph name="asterisk" format="1">
  <advance width="934"/>
  <unicode hex="002A"/>
  <outline>
    <contour>
      <point x="406" y="1495" type="line"/>
      <point x="406" y="1200" type="line"/>
      <point x="142" y="1292" type="line"/>
      <point x="106" y="1178" type="line"/>
      <point x="385" y="1089" type="line"/>
      <point x="216" y="859" type="line"/>
      <point x="310" y="785" type="line"/>
      <point x="479" y="1029" type="line"/>
      <point x="639" y="796" type="line"/>
      <point x="728" y="860" type="line"/>
      <point x="563" y="1095" type="line"/>
      <point x="833" y="1180" type="line"/>
      <point x="800" y="1295" type="line"/>
      <point x="524" y="1200" type="line"/>
      <point x="524" y="1495" type="line"/>
    </contour>
  </outline>
</glyph>
<glyph name="four" format="1">
  <advance width="1237"/>
  <unicode hex="0034"/>
  <outline>
    <contour>
      <point x="912" y="1495" type="line"/>
      <point x="706" y="1495" type="line"/>
      <point x="43" y="449" type="line"/>
      <point x="43" y="327" type="line"/>
      <point x="776" y="327" type="line"/>
      <point x="776" y="0" type="line"/>
      <point x="912" y="0" type="line"/>
      <point x="912" y="327" type="line"/>
      <point x="1093" y="327" type="line"/>
      <point x="1093" y="457" type="line"/>
      <point x="912" y="457" type="line"/>
    </contour>
    <contour>
      <point x="148" y="457" type="line"/>
      <point x="168" y="427" type="line"/>
      <point x="776" y="1350" type="line"/>
      <point x="776" y="457" type="line"/>
    </contour>
  </outline>
</glyph>
<glyph name="seven" format="1">
  <advance width="1050"/>
  <unicode hex="0037"/>
  <outline>
    <contour>
      <point x="364" y="0" type="line"/>
      <point x="969.999" y="1374" type="line"/>
      <point x="969.999" y="1495" type="line"/>
      <point x="74" y="1495" type="line"/>
      <point x="74" y="1235" type="line"/>
      <point x="202" y="1235" type="line"/>
      <point x="202" y="1365" type="line"/>
      <point x="823" y="1365" type="line"/>
      <point x="217" y="0" type="line"/>
    </contour>
  </outline>
</glyph>
<glyph name="colon" format="1">
  <advance width="537"/>
  <unicode hex="003A"/>
  <outline>
    <contour>
      <point x="381" y="996.999" type="line"/>
      <point x="381" y="1027"/>
      <point x="370" y="1053"/>
      <point x="347" y="1076" type="curve" smooth="yes"/>
      <point x="324" y="1099"/>
      <point x="298" y="1110"/>
      <point x="268" y="1110" type="curve" smooth="yes"/>
      <point x="238" y="1110"/>
      <point x="212" y="1099"/>
      <point x="190" y="1076" type="curve" smooth="yes"/>
      <point x="168" y="1053"/>
      <point x="157" y="1026"/>
      <point x="157" y="994.999" type="curve" smooth="yes"/>
      <point x="157" y="965"/>
      <point x="168" y="939"/>
      <point x="190" y="917" type="curve" smooth="yes"/>
      <point x="212" y="895"/>
      <point x="238" y="884"/>
      <point x="268" y="884" type="curve" smooth="yes"/>
      <point x="299" y="884"/>
      <point x="326" y="895"/>
      <point x="349" y="917" type="curve" smooth="yes"/>
      <point x="372" y="939"/>
      <point x="383" y="965"/>
      <point x="383" y="994.999" type="curve"/>
    </contour>
    <contour>
      <point x="383" y="93.9999" type="line"/>
      <point x="383" y="124"/>
      <point x="372" y="150"/>
      <point x="349" y="173" type="curve" smooth="yes"/>
      <point x="326" y="196"/>
      <point x="300" y="207"/>
      <point x="270" y="207" type="curve" smooth="yes"/>
      <point x="240" y="207"/>
      <point x="214" y="196"/>
      <point x="192" y="173" type="curve" smooth="yes"/>
      <point x="170" y="150"/>
      <point x="159" y="123"/>
      <point x="159" y="92" type="curve" smooth="yes"/>
      <point x="159" y="62"/>
      <point x="170" y="36"/>
      <point x="192" y="14" type="curve" smooth="yes"/>
      <point x="214" y="-8"/>
      <point x="240" y="-19"/>
      <point x="270" y="-19" type="curve" smooth="yes"/>
      <point x="301" y="-19"/>
      <point x="328" y="-8"/>
      <point x="351" y="14" type="curve" smooth="yes"/>
      <point x="374" y="36"/>
      <point x="385" y="62"/>
      <point x="385" y="92" type="curve"/>
    </contour>
  </outline>
</glyph>
<glyph name="Y" format="1">
  <advance width="1299"/>
  <unicode hex="0059"/>
  <outline>
    <contour>
      <point x="733" y="539" type="line"/>
      <point x="1124" y="1365" type="line"/>
      <point x="1260" y="1365" type="line"/>
      <point x="1260" y="1495" type="line"/>
      <point x="1077" y="1495" type="line" smooth="yes"/>
      <point x="1039" y="1495"/>
      <point x="1016" y="1481"/>
      <point x="1001" y="1447" type="curve" smooth="yes"/>
      <point x="660" y="673" type="line"/>
      <point x="298" y="1447" type="line" smooth="yes"/>
      <point x="282" y="1480"/>
      <point x="260" y="1494"/>
      <point x="222" y="1494" type="curve" smooth="yes"/>
      <point x="39" y="1494" type="line"/>
      <point x="39" y="1364" type="line"/>
      <point x="175" y="1364" type="line"/>
      <point x="587" y="538" type="line"/>
      <point x="587" y="-0.999999" type="line"/>
      <point x="733" y="-0.999999" type="line"/>
    </contour>
    <contour>
      <point x="654" y="1495" type="move" name="top"/>
    </contour>
  </outline>
</glyph>
<glyph name="d" format="1">
  <advance width="1270"/>
  <unicode hex="0064"/>
  <outline>
    <contour>
      <point x="946" y="380" type="line"/>
      <point x="962" y="190" type="line"/>
      <point x="958" y="117"/>
      <point x="968" y="66"/>
      <point x="993.999" y="37" type="curve" smooth="yes"/>
      <point x="1017" y="11"/>
      <point x="1058" y="-2"/>
      <point x="1117" y="-2" type="curve" smooth="yes"/>
      <point x="1260" y="-2" type="line"/>
      <point x="1260" y="122" type="line"/>
      <point x="1170" y="122" type="line" smooth="yes"/>
      <point x="1141" y="122"/>
      <point x="1119" y="127"/>
      <point x="1104" y="137" type="curve" smooth="yes"/>
      <point x="1089" y="147"/>
      <point x="1082" y="171"/>
      <point x="1082" y="208" type="curve" smooth="yes"/>
      <point x="1082" y="386" type="line"/>
    </contour>
    <contour>
      <point x="1082" y="354" type="line"/>
      <point x="1082" y="1432" type="line" smooth="yes"/>
      <point x="1082" y="1454"/>
      <point x="1078" y="1470"/>
      <point x="1069" y="1480" type="curve" smooth="yes"/>
      <point x="1060" y="1490"/>
      <point x="1044" y="1495"/>
      <point x="1021" y="1495" type="curve" smooth="yes"/>
      <point x="814" y="1495" type="line"/>
      <point x="815" y="1371" type="line"/>
      <point x="945" y="1371" type="line"/>
      <point x="945" y="1015" type="line"/>
      <point x="832" y="1075"/>
      <point x="747" y="1103"/>
      <point x="603" y="1103" type="curve" smooth="yes"/>
      <point x="271" y="1103"/>
      <point x="77" y="871"/>
      <point x="79" y="550" type="curve" smooth="yes"/>
      <point x="81" y="196"/>
      <point x="270" y="-20"/>
      <point x="604" y="-20" type="curve" smooth="yes"/>
      <point x="760" y="-20"/>
      <point x="884" y="57"/>
      <point x="971" y="182" type="curve"/>
      <point x="948" y="396" type="line"/>
      <point x="929" y="237"/>
      <point x="761" y="114"/>
      <point x="605" y="114" type="curve" smooth="yes"/>
      <point x="368" y="114"/>
      <point x="211" y="280"/>
      <point x="217" y="547" type="curve" smooth="yes"/>
      <point x="223" y="813"/>
      <point x="361" y="978"/>
      <point x="603" y="978" type="curve" smooth="yes"/>
      <point x="725" y="978"/>
      <point x="843" y="930"/>
      <point x="945" y="873" type="curve"/>
      <point x="946" y="876" type="line"/>
      <point x="946" y="348" type="line"/>
    </contour>
  </outline>
</glyph>
<glyph name="m" format="1">
  <advance width="2002"/>
  <unicode hex="006D"/>
  <outline>
    <contour>
      <point x="1057" y="985"/>
      <point x="867" y="1104"/>
      <point x="677" y="1104" type="curve" smooth="yes"/>
      <point x="540" y="1104"/>
      <point x="443" y="1045"/>
      <point x="365" y="948" type="curve"/>
      <point x="365" y="1023" type="line" smooth="yes"/>
      <point x="365" y="1066"/>
      <point x="338" y="1084"/>
      <point x="295" y="1084" type="curve" smooth="yes"/>
      <point x="115" y="1084" type="line"/>
      <point x="115" y="960" type="line"/>
      <point x="247" y="960" type="line"/>
      <point x="247" y="0" type="line"/>
      <point x="383" y="0" type="line"/>
      <point x="383" y="806" type="line"/>
      <point x="450" y="903"/>
      <point x="543" y="979"/>
      <point x="665" y="979" type="curve" smooth="yes"/>
      <point x="785" y="979"/>
      <point x="921" y="905"/>
      <point x="921" y="694" type="curve" smooth="yes"/>
      <point x="921" y="0" type="line"/>
      <point x="1057" y="0" type="line"/>
      <point x="1057" y="717" type="line" smooth="yes"/>
    </contour>
    <contour>
      <point x="1814" y="124" type="line" smooth="yes"/>
      <point x="1785" y="124"/>
      <point x="1763" y="129"/>
      <point x="1748" y="139" type="curve" smooth="yes"/>
      <point x="1733" y="149"/>
      <point x="1726" y="173"/>
      <point x="1726" y="211" type="curve" smooth="yes"/>
      <point x="1726" y="717" type="line" smooth="yes"/>
      <point x="1726" y="985"/>
      <point x="1536" y="1104"/>
      <point x="1346" y="1104" type="curve" smooth="yes"/>
      <point x="1192" y="1104"/>
      <point x="1083" y="1035"/>
      <point x="1009" y="915" type="curve"/>
      <point x="1057" y="711" type="line"/>
      <point x="1058" y="856"/>
      <point x="1173" y="979"/>
      <point x="1334" y="979" type="curve" smooth="yes"/>
      <point x="1454" y="979"/>
      <point x="1590" y="905"/>
      <point x="1590" y="694" type="curve" smooth="yes"/>
      <point x="1590" y="210" type="line" smooth="yes"/>
      <point x="1590" y="126"/>
      <point x="1602" y="70"/>
      <point x="1627" y="42" type="curve" smooth="yes"/>
      <point x="1652" y="14"/>
      <point x="1694" y="0"/>
      <point x="1754" y="0" type="curve" smooth="yes"/>
      <point x="1904" y="0" type="line"/>
      <point x="1904" y="124" type="line"/>
    </contour>
  </outline>
</glyph>
<glyph name="u" format="1">
  <advance width="1304"/>
  <unicode hex="0075"/>
  <outline>
    <contour>
      <point x="1012" y="201" type="line"/>
      <point x="963" y="314" type="line"/>
      <point x="886" y="201"/>
      <point x="783" y="105"/>
      <point x="599" y="105" type="curve" smooth="yes"/>
      <point x="490" y="105"/>
      <point x="324" y="139"/>
      <point x="324" y="390" type="curve" smooth="yes"/>
      <point x="324" y="877" type="line"/>
      <point x="188" y="877" type="line"/>
      <point x="188" y="367" type="line" smooth="yes"/>
      <point x="188" y="59"/>
      <point x="408" y="-20"/>
      <point x="602" y="-20" type="curve" smooth="yes"/>
      <point x="777" y="-20"/>
      <point x="877" y="44"/>
      <point x="966" y="148" type="curve"/>
    </contour>
    <contour>
      <point x="324" y="753" type="line"/>
      <point x="324" y="1021" type="line" smooth="yes"/>
      <point x="324" y="1042"/>
      <point x="318" y="1058"/>
      <point x="306" y="1068" type="curve" smooth="yes"/>
      <point x="294" y="1078"/>
      <point x="276" y="1083"/>
      <point x="253" y="1083" type="curve" smooth="yes"/>
      <point x="58" y="1083" type="line"/>
      <point x="58" y="959" type="line"/>
      <point x="188" y="959" type="line"/>
      <point x="188" y="775" type="line"/>
    </contour>
    <contour>
      <point x="1093" y="324" type="line"/>
      <point x="1093" y="1084" type="line"/>
      <point x="957" y="1084" type="line"/>
      <point x="957" y="298" type="line"/>
    </contour>
    <contour>
      <point x="960" y="380" type="line"/>
      <point x="973" y="190" type="line"/>
      <point x="969" y="117"/>
      <point x="979" y="66"/>
      <point x="1005" y="37" type="curve" smooth="yes"/>
      <point x="1028" y="11"/>
      <point x="1069" y="-2"/>
      <point x="1128" y="-2" type="curve" smooth="yes"/>
      <point x="1271" y="-2" type="line"/>
      <point x="1271" y="122" type="line"/>
      <point x="1181" y="122" type="line" smooth="yes"/>
      <point x="1152" y="122"/>
      <point x="1130" y="127"/>
      <point x="1115" y="137" type="curve" smooth="yes"/>
      <point x="1100" y="147"/>
      <point x="1093" y="171"/>
      <point x="1093" y="208" type="curve" smooth="yes"/>
      <point x="1093" y="386" type="line"/>
    </contour>
    <contour>
      <point x="1174" y="10" type="move" name="ogonek"/>
    </contour>
    <contour>
      <point x="652" y="1084" type="move" name="top"/>
    </contour>
  </outline>
</glyph>
<glyph name="w" format="1">
  <advance width="1688"/>
  <unicode hex="0077"/>
  <outline>
    <contour>
      <point x="1499" y="1084" type="line" smooth="yes"/>
      <point x="1478" y="1084"/>
      <point x="1461" y="1079"/>
      <point x="1449" y="1070" type="curve" smooth="yes"/>
      <point x="1437" y="1061"/>
      <point x="1428" y="1048"/>
      <point x="1423" y="1031" type="curve" smooth="yes"/>
      <point x="1176" y="172" type="line"/>
      <point x="934" y="1084" type="line"/>
      <point x="755" y="1084" type="line"/>
      <point x="513" y="172" type="line"/>
      <point x="267" y="1031" type="line"/>
      <point x="260" y="1048"/>
      <point x="250" y="1061"/>
      <point x="237" y="1070" type="curve" smooth="yes"/>
      <point x="224" y="1079"/>
      <point x="208" y="1084"/>
      <point x="189" y="1084" type="curve" smooth="yes"/>
      <point x="37" y="1084" type="line"/>
      <point x="37" y="960" type="line"/>
      <point x="140" y="960" type="line"/>
      <point x="428" y="0" type="line"/>
      <point x="610" y="0" type="line"/>
      <point x="844" y="930" type="line"/>
      <point x="1077" y="0" type="line"/>
      <point x="1256" y="0" type="line"/>
      <point x="1542" y="960" type="line"/>
      <point x="1647" y="960" type="line"/>
      <point x="1647" y="1084" type="line"/>
    </contour>
    <contour>
      <point x="844" y="1084" type="move" name="top"/>
    </contour>
  </outline>
</glyph>
<glyph name="x" format="1">
  <advance width="1101"/>
  <unicode hex="0078"/>
  <outline>
    <contour>
      <point x="635" y="551" type="line"/>
      <point x="953" y="960" type="line"/>
      <point x="1058" y="960" type="line"/>
      <point x="1058" y="1084" type="line"/>
      <point x="922" y="1084" type="line" smooth="yes"/>
      <point x="887" y="1084"/>
      <point x="862" y="1068"/>
      <point x="841" y="1040" type="curve" smooth="yes"/>
      <point x="556" y="666" type="line"/>
      <point x="253" y="1040" type="line" smooth="yes"/>
      <point x="230" y="1069"/>
      <point x="207" y="1083"/>
      <point x="173" y="1083" type="curve" smooth="yes"/>
      <point x="38" y="1083" type="line"/>
      <point x="38" y="959" type="line"/>
      <point x="143" y="959" type="line"/>
      <point x="474" y="550" type="line"/>
      <point x="64" y="-0.999999" type="line"/>
      <point x="238" y="-0.999999" type="line"/>
      <point x="554" y="423" type="line"/>
      <point x="897" y="-0.999999" type="line"/>
      <point x="1061" y="-0.999999" type="line"/>
    </contour>
  </outline>
</glyph>
<glyph name="cent" format="1">
  <advance width="1108"/>
  <unicode hex="00A2"/>
  <outline>
    <contour>
      <point x="338" y="457" type="line"/>
      <point x="319" y="502"/>
      <point x="306" y="551"/>
      <point x="299" y="604" type="curve" smooth="yes"/>
      <point x="292" y="657"/>
      <point x="288" y="710"/>
      <point x="288" y="762" type="curve" smooth="yes"/>
      <point x="288" y="815"/>
      <point x="293" y="869"/>
      <point x="302" y="924" type="curve" smooth="yes"/>
      <point x="311" y="978.999"/>
      <point x="328" y="1029"/>
      <point x="353" y="1075" type="curve" smooth="yes"/>
      <point x="378" y="1120"/>
      <point x="412" y="1158"/>
      <point x="454" y="1189" type="curve" smooth="yes"/>
      <point x="496" y="1220"/>
      <point x="550" y="1237"/>
      <point x="615" y="1240" type="curve"/>
      <point x="531" y="271" type="line"/>
      <point x="484" y="284"/>
      <point x="445" y="307"/>
      <point x="414" y="340" type="curve" smooth="yes"/>
      <point x="383" y="373"/>
      <point x="358" y="412"/>
      <point x="339" y="457" type="curve"/>
    </contour>
    <contour>
      <point x="233" y="1164" type="line"/>
      <point x="194" y="1106"/>
      <point x="167" y="1040"/>
      <point x="151" y="967" type="curve" smooth="yes"/>
      <point x="135" y="894"/>
      <point x="127" y="821"/>
      <point x="127" y="748" type="curve" smooth="yes"/>
      <point x="127" y="686"/>
      <point x="134" y="622"/>
      <point x="148" y="556" type="curve" smooth="yes"/>
      <point x="162" y="490"/>
      <point x="185" y="428"/>
      <point x="216" y="371" type="curve" smooth="yes"/>
      <point x="247" y="314"/>
      <point x="288" y="264"/>
      <point x="338" y="222" type="curve" smooth="yes"/>
      <point x="388" y="180"/>
      <point x="449" y="153"/>
      <point x="521" y="140" type="curve"/>
      <point x="490" y="-216" type="line"/>
      <point x="585" y="-216" type="line"/>
      <point x="613" y="134" type="line"/>
      <point x="714" y="134"/>
      <point x="800" y="159"/>
      <point x="870" y="208" type="curve" smooth="yes"/>
      <point x="940" y="257"/>
      <point x="993.999" y="331"/>
      <point x="1032" y="429" type="curve"/>
      <point x="901" y="472" type="line"/>
      <point x="875" y="403"/>
      <point x="839" y="351"/>
      <point x="793" y="315" type="curve" smooth="yes"/>
      <point x="747" y="279"/>
      <point x="691" y="260"/>
      <point x="626" y="258" type="curve"/>
      <point x="710" y="1233" type="line"/>
      <point x="749" y="1228"/>
      <point x="789" y="1218"/>
      <point x="829" y="1204" type="curve" smooth="yes"/>
      <point x="869" y="1190"/>
      <point x="910" y="1171"/>
      <point x="952" y="1148" type="curve"/>
      <point x="1006" y="1267" type="line"/>
      <point x="954" y="1293"/>
      <point x="904" y="1313"/>
      <point x="856" y="1327" type="curve" smooth="yes"/>
      <point x="808" y="1341"/>
      <point x="762" y="1351"/>
      <point x="719" y="1356" type="curve"/>
      <point x="750" y="1708" type="line"/>
      <point x="655" y="1708" type="line"/>
      <point x="625" y="1360" type="line"/>
      <point x="529" y="1359"/>
      <point x="449" y="1340"/>
      <point x="385" y="1303" type="curve" smooth="yes"/>
      <point x="321" y="1266"/>
      <point x="270" y="1218"/>
      <point x="232" y="1160" type="curve"/>
    </contour>
  </outline>
</glyph>
<glyph name="section" format="1">
  <advance width="1079"/>
  <unicode hex="00A7"/>
  <outline>
    <contour>
      <point x="772" y="510" type="line"/>
      <point x="772" y="451"/>
      <point x="751" y="401"/>
      <point x="709" y="360" type="curve" smooth="yes"/>
      <point x="667" y="319"/>
      <point x="612" y="298"/>
      <point x="545" y="298" type="curve" smooth="yes"/>
      <point x="534" y="298"/>
      <point x="524" y="298"/>
      <point x="515" y="299" type="curve" smooth="yes"/>
      <point x="506" y="300"/>
      <point x="498" y="301"/>
      <point x="491" y="302" type="curve"/>
      <point x="429" y="332"/>
      <point x="382" y="365"/>
      <point x="351" y="401" type="curve" smooth="yes"/>
      <point x="320" y="437"/>
      <point x="304" y="485"/>
      <point x="304" y="544" type="curve" smooth="yes"/>
      <point x="304" y="605"/>
      <point x="324" y="656"/>
      <point x="364" y="696" type="curve" smooth="yes"/>
      <point x="404" y="736"/>
      <point x="460" y="756"/>
      <point x="531" y="756" type="curve" smooth="yes"/>
      <point x="541" y="756"/>
      <point x="550" y="756"/>
      <point x="558" y="755" type="curve" smooth="yes"/>
      <point x="566" y="754"/>
      <point x="574" y="753"/>
      <point x="581" y="752" type="curve"/>
      <point x="642" y="722"/>
      <point x="689" y="689"/>
      <point x="722" y="653" type="curve" smooth="yes"/>
      <point x="755" y="617"/>
      <point x="771" y="568"/>
      <point x="771" y="507" type="curve"/>
    </contour>
    <contour>
      <point x="933" y="521" type="line"/>
      <point x="933" y="595"/>
      <point x="917" y="656"/>
      <point x="885" y="703" type="curve" smooth="yes"/>
      <point x="853" y="750"/>
      <point x="813" y="790"/>
      <point x="764" y="823" type="curve" smooth="yes"/>
      <point x="715" y="856"/>
      <point x="662" y="884"/>
      <point x="605" y="907" type="curve" smooth="yes"/>
      <point x="548" y="930"/>
      <point x="496" y="955"/>
      <point x="448" y="980.999" type="curve" smooth="yes"/>
      <point x="399" y="1007"/>
      <point x="359" y="1037"/>
      <point x="327" y="1072" type="curve" smooth="yes"/>
      <point x="295" y="1107"/>
      <point x="279" y="1152"/>
      <point x="279" y="1208" type="curve" smooth="yes"/>
      <point x="279" y="1274"/>
      <point x="302" y="1327"/>
      <point x="348" y="1367" type="curve" smooth="yes"/>
      <point x="394" y="1407"/>
      <point x="460" y="1427"/>
      <point x="546" y="1427" type="curve" smooth="yes"/>
      <point x="622" y="1427"/>
      <point x="684" y="1404"/>
      <point x="732" y="1358" type="curve" smooth="yes"/>
      <point x="780" y="1312"/>
      <point x="815" y="1242"/>
      <point x="836" y="1149" type="curve"/>
      <point x="978.999" y="1184" type="line"/>
      <point x="953" y="1303"/>
      <point x="903" y="1394"/>
      <point x="829" y="1458" type="curve" smooth="yes"/>
      <point x="755" y="1522"/>
      <point x="656" y="1554"/>
      <point x="533" y="1554" type="curve" smooth="yes"/>
      <point x="474" y="1554"/>
      <point x="419" y="1546"/>
      <point x="368" y="1530" type="curve" smooth="yes"/>
      <point x="317" y="1514"/>
      <point x="273" y="1490"/>
      <point x="236" y="1459" type="curve" smooth="yes"/>
      <point x="198" y="1428"/>
      <point x="168" y="1390"/>
      <point x="147" y="1346" type="curve" smooth="yes"/>
      <point x="126" y="1302"/>
      <point x="115" y="1251"/>
      <point x="115" y="1194" type="curve" smooth="yes"/>
      <point x="115" y="1108"/>
      <point x="137" y="1038"/>
      <point x="181" y="984.999" type="curve" smooth="yes"/>
      <point x="225" y="932"/>
      <point x="288" y="886"/>
      <point x="370" y="847" type="curve"/>
      <point x="296" y="822"/>
      <point x="239" y="783"/>
      <point x="199" y="730" type="curve" smooth="yes"/>
      <point x="159" y="677"/>
      <point x="139" y="610"/>
      <point x="139" y="528" type="curve" smooth="yes"/>
      <point x="139" y="455"/>
      <point x="155" y="394"/>
      <point x="187" y="346" type="curve" smooth="yes"/>
      <point x="219" y="298"/>
      <point x="260" y="258"/>
      <point x="309" y="227" type="curve" smooth="yes"/>
      <point x="358" y="196"/>
      <point x="410" y="169"/>
      <point x="466" y="146" type="curve" smooth="yes"/>
      <point x="522" y="123"/>
      <point x="575" y="97.9999"/>
      <point x="624" y="72" type="curve" smooth="yes"/>
      <point x="673" y="46"/>
      <point x="714" y="16"/>
      <point x="746" y="-18" type="curve" smooth="yes"/>
      <point x="778" y="-52"/>
      <point x="794" y="-96.9999"/>
      <point x="794" y="-153" type="curve" smooth="yes"/>
      <point x="794" y="-220"/>
      <point x="771" y="-274"/>
      <point x="725" y="-315" type="curve" smooth="yes"/>
      <point x="679" y="-356"/>
      <point x="613" y="-377"/>
      <point x="526" y="-377" type="curve" smooth="yes"/>
      <point x="451" y="-377"/>
      <point x="389" y="-353"/>
      <point x="340" y="-306" type="curve" smooth="yes"/>
      <point x="291" y="-259"/>
      <point x="255" y="-188"/>
      <point x="232" y="-92.9999" type="curve"/>
      <point x="90" y="-128" type="line"/>
      <point x="113" y="-248"/>
      <point x="162" y="-340"/>
      <point x="236" y="-404" type="curve" smooth="yes"/>
      <point x="310" y="-468"/>
      <point x="410" y="-500"/>
      <point x="535" y="-500" type="curve" smooth="yes"/>
      <point x="595" y="-500"/>
      <point x="651" y="-492"/>
      <point x="702" y="-476" type="curve" smooth="yes"/>
      <point x="753" y="-460"/>
      <point x="798" y="-436"/>
      <point x="836" y="-405" type="curve" smooth="yes"/>
      <point x="873" y="-374"/>
      <point x="902" y="-336"/>
      <point x="923" y="-292" type="curve" smooth="yes"/>
      <point x="944" y="-248"/>
      <point x="955" y="-198"/>
      <point x="955" y="-142" type="curve" smooth="yes"/>
      <point x="955" y="-56"/>
      <point x="933" y="13"/>
      <point x="888" y="65" type="curve" smooth="yes"/>
      <point x="843" y="117"/>
      <point x="780" y="163"/>
      <point x="699" y="203" type="curve"/>
      <point x="770" y="228"/>
      <point x="826" y="267"/>
      <point x="867" y="319" type="curve" smooth="yes"/>
      <point x="908" y="371"/>
      <point x="929" y="438"/>
      <point x="929" y="520" type="curve"/>
    </contour>
  </outline>
</glyph>
<glyph name="dieresis" format="1">
  <advance width="986"/>
  <unicode hex="00A8"/>
  <outline>
    <contour>
      <point x="702" y="1340" type="line"/>
      <point x="729" y="1340"/>
      <point x="753" y="1350"/>
      <point x="774" y="1370" type="curve" smooth="yes"/>
      <point x="795" y="1390"/>
      <point x="805" y="1414"/>
      <point x="805" y="1441" type="curve" smooth="yes"/>
      <point x="805" y="1468"/>
      <point x="795" y="1492"/>
      <point x="774" y="1513" type="curve" smooth="yes"/>
      <point x="753" y="1534"/>
      <point x="729" y="1544"/>
      <point x="702" y="1544" type="curve" smooth="yes"/>
      <point x="675" y="1544"/>
      <point x="651" y="1534"/>
      <point x="630" y="1513" type="curve" smooth="yes"/>
      <point x="609" y="1492"/>
      <point x="599" y="1468"/>
      <point x="599" y="1441" type="curve" smooth="yes"/>
      <point x="599" y="1428"/>
      <point x="602" y="1415"/>
      <point x="607" y="1403" type="curve" smooth="yes"/>
      <point x="612" y="1391"/>
      <point x="620" y="1380"/>
      <point x="630" y="1370" type="curve"/>
      <point x="641" y="1360"/>
      <point x="652" y="1352"/>
      <point x="664" y="1347" type="curve" smooth="yes"/>
      <point x="676" y="1342"/>
      <point x="689" y="1339"/>
      <point x="702" y="1339" type="curve"/>
    </contour>
    <contour>
      <point x="283" y="1339" type="line"/>
      <point x="310" y="1339"/>
      <point x="334" y="1349"/>
      <point x="354" y="1369" type="curve" smooth="yes"/>
      <point x="374" y="1389"/>
      <point x="384" y="1413"/>
      <point x="384" y="1440" type="curve" smooth="yes"/>
      <point x="384" y="1467"/>
      <point x="374" y="1491"/>
      <point x="354" y="1512" type="curve" smooth="yes"/>
      <point x="334" y="1533"/>
      <point x="310" y="1543"/>
      <point x="283" y="1543" type="curve" smooth="yes"/>
      <point x="256" y="1543"/>
      <point x="232" y="1533"/>
      <point x="211" y="1512" type="curve" smooth="yes"/>
      <point x="190" y="1491"/>
      <point x="180" y="1467"/>
      <point x="180" y="1440" type="curve" smooth="yes"/>
      <point x="180" y="1427"/>
      <point x="183" y="1414"/>
      <point x="188" y="1402" type="curve" smooth="yes"/>
      <point x="193" y="1390"/>
      <point x="201" y="1379"/>
      <point x="211" y="1369" type="curve"/>
      <point x="222" y="1359"/>
      <point x="233" y="1351"/>
      <point x="245" y="1346" type="curve" smooth="yes"/>
      <point x="257" y="1341"/>
      <point x="270" y="1338"/>
      <point x="283" y="1338" type="curve"/>
    </contour>
    <contour>
      <point x="493" y="1084" type="move" name="_top"/>
    </contour>
  </outline>
</glyph>
<glyph name="registered" format="1">
  <advance width="1475"/>
  <unicode hex="00AE"/>
  <outline>
    <contour>
      <point x="133" y="981.999" type="line"/>
      <point x="133" y="810"/>
      <point x="189" y="665"/>
      <point x="300" y="546" type="curve" smooth="yes"/>
      <point x="411" y="427"/>
      <point x="557" y="368"/>
      <point x="737" y="368" type="curve" smooth="yes"/>
      <point x="914" y="368"/>
      <point x="1059" y="427"/>
      <point x="1172" y="545" type="curve" smooth="yes"/>
      <point x="1285" y="663"/>
      <point x="1342" y="809"/>
      <point x="1342" y="981.999" type="curve" smooth="yes"/>
      <point x="1342" y="1154"/>
      <point x="1289" y="1296"/>
      <point x="1184" y="1409" type="curve" smooth="yes"/>
      <point x="1079" y="1522"/>
      <point x="930" y="1578"/>
      <point x="738" y="1578" type="curve" smooth="yes"/>
      <point x="544" y="1578"/>
      <point x="395" y="1522"/>
      <point x="291" y="1410" type="curve" smooth="yes"/>
      <point x="187" y="1298"/>
      <point x="135" y="1155"/>
      <point x="135" y="981.999" type="curve"/>
    </contour>
    <contour>
      <point x="213" y="979.999" type="line" smooth="yes"/>
      <point x="213" y="1135"/>
      <point x="259" y="1262"/>
      <point x="351" y="1361" type="curve" smooth="yes"/>
      <point x="443" y="1460"/>
      <point x="573" y="1510"/>
      <point x="740" y="1510" type="curve" smooth="yes"/>
      <point x="903" y="1510"/>
      <point x="1032" y="1461"/>
      <point x="1126" y="1362" type="curve" smooth="yes"/>
      <point x="1220" y="1263"/>
      <point x="1267" y="1135"/>
      <point x="1267" y="977.999" type="curve" smooth="yes"/>
      <point x="1267" y="824"/>
      <point x="1218" y="695"/>
      <point x="1120" y="590" type="curve" smooth="yes"/>
      <point x="1022" y="485"/>
      <point x="895" y="433"/>
      <point x="740" y="433" type="curve" smooth="yes"/>
      <point x="587" y="433"/>
      <point x="461" y="485"/>
      <point x="362" y="589" type="curve" smooth="yes"/>
      <point x="263" y="693"/>
      <point x="213" y="823"/>
      <point x="213" y="977.999" type="curve" smooth="yes"/>
    </contour>
    <contour>
      <point x="613" y="1249" type="line"/>
      <point x="740" y="1249" type="line" smooth="yes"/>
      <point x="785" y="1249"/>
      <point x="819" y="1239"/>
      <point x="842" y="1218" type="curve" smooth="yes"/>
      <point x="865" y="1197"/>
      <point x="876" y="1164"/>
      <point x="876" y="1118" type="curve" smooth="yes"/>
      <point x="876" y="1074"/>
      <point x="865" y="1041"/>
      <point x="842" y="1020" type="curve" smooth="yes"/>
      <point x="819" y="998.999"/>
      <point x="785" y="987.999"/>
      <point x="740" y="987.999" type="curve" smooth="yes"/>
      <point x="613" y="987.999" type="line"/>
    </contour>
    <contour>
      <point x="707" y="931" type="line" smooth="yes"/>
      <point x="723" y="931"/>
      <point x="737" y="930"/>
      <point x="749" y="928" type="curve" smooth="yes"/>
      <point x="761" y="926"/>
      <point x="771" y="923"/>
      <point x="779" y="918" type="curve" smooth="yes"/>
      <point x="787" y="913"/>
      <point x="794" y="907"/>
      <point x="800" y="899" type="curve" smooth="yes"/>
      <point x="806" y="891"/>
      <point x="812" y="880"/>
      <point x="817" y="867" type="curve" smooth="yes"/>
      <point x="893" y="687" type="line" smooth="yes"/>
      <point x="896" y="680"/>
      <point x="900" y="675"/>
      <point x="905" y="672" type="curve" smooth="yes"/>
      <point x="910" y="669"/>
      <point x="916" y="667"/>
      <point x="923" y="667" type="curve" smooth="yes"/>
      <point x="1012" y="667" type="line"/>
      <point x="1011" y="726" type="line"/>
      <point x="954" y="726" type="line"/>
      <point x="885" y="876" type="line" smooth="yes"/>
      <point x="878" y="892"/>
      <point x="870" y="906"/>
      <point x="861" y="917" type="curve" smooth="yes"/>
      <point x="852" y="928"/>
      <point x="841" y="937"/>
      <point x="828" y="943" type="curve"/>
      <point x="861" y="954"/>
      <point x="888" y="973.999"/>
      <point x="909" y="1004" type="curve" smooth="yes"/>
      <point x="930" y="1034"/>
      <point x="941" y="1072"/>
      <point x="941" y="1118" type="curve" smooth="yes"/>
      <point x="941" y="1181"/>
      <point x="924" y="1228"/>
      <point x="889" y="1260" type="curve" smooth="yes"/>
      <point x="854" y="1292"/>
      <point x="803" y="1308"/>
      <point x="736" y="1308" type="curve" smooth="yes"/>
      <point x="480" y="1308" type="line"/>
      <point x="480" y="1249" type="line"/>
      <point x="539" y="1249" type="line"/>
      <point x="539" y="668" type="line"/>
      <point x="609" y="668" type="line"/>
      <point x="609" y="931" type="line"/>
    </contour>
  </outline>
</glyph>
<glyph name="periodcentered" format="1">
  <advance width="537"/>
  <unicode hex="00B7"/>
  <outline>
    <contour>
      <point x="266" y="518" type="line"/>
      <point x="299" y="518"/>
      <point x="326" y="530"/>
      <point x="348" y="554" type="curve" smooth="yes"/>
      <point x="370" y="578"/>
      <point x="381" y="604"/>
      <point x="381" y="631" type="curve" smooth="yes"/>
      <point x="381" y="660"/>
      <point x="369" y="686"/>
      <point x="346" y="709" type="curve" smooth="yes"/>
      <point x="323" y="732"/>
      <point x="297" y="744"/>
      <point x="268" y="744" type="curve" smooth="yes"/>
      <point x="241" y="744"/>
      <point x="215" y="733"/>
      <point x="191" y="711" type="curve" smooth="yes"/>
      <point x="167" y="689"/>
      <point x="155" y="662"/>
      <point x="155" y="631" type="curve" smooth="yes"/>
      <point x="155" y="616"/>
      <point x="158" y="602"/>
      <point x="163" y="589" type="curve" smooth="yes"/>
      <point x="168" y="576"/>
      <point x="176" y="564"/>
      <point x="187" y="553" type="curve" smooth="yes"/>
      <point x="198" y="542"/>
      <point x="210" y="534"/>
      <point x="223" y="528" type="curve" smooth="yes"/>
      <point x="236" y="522"/>
      <point x="250" y="519"/>
      <point x="265" y="519" type="curve"/>
    </contour>
    <contour>
      <point x="265" y="1079" type="move" name="_dot"/>
    </contour>
  </outline>
</glyph>
<glyph name="ae" format="1">
  <advance width="2039"/>
  <unicode hex="00E6"/>
  <outline>
    <contour>
      <point x="1008" y="602" type="line"/>
      <point x="998" y="814"/>
      <point x="1166" y="979"/>
      <point x="1431" y="979" type="curve"/>
      <point x="1649" y="979"/>
      <point x="1807" y="838"/>
      <point x="1805" y="619" type="curve"/>
      <point x="992" y="619" type="line"/>
      <point x="984" y="499" type="line"/>
      <point x="1946" y="499" type="line"/>
      <point x="1944" y="616" type="line"/>
      <point x="1944" y="903"/>
      <point x="1732" y="1104"/>
      <point x="1431" y="1104" type="curve" smooth="yes"/>
      <point x="1065" y="1104"/>
      <point x="885" y="877"/>
      <point x="885" y="550" type="curve" smooth="yes"/>
      <point x="885" y="209"/>
      <point x="1071" y="-20"/>
      <point x="1446" y="-20" type="curve" smooth="yes"/>
      <point x="1535" y="-20"/>
      <point x="1619" y="-3"/>
      <point x="1698" y="30" type="curve" smooth="yes"/>
      <point x="1777" y="63"/>
      <point x="1849" y="98"/>
      <point x="1915" y="135" type="curve"/>
      <point x="1858" y="243" type="line"/>
      <point x="1811" y="214"/>
      <point x="1749" y="183"/>
      <point x="1672" y="150" type="curve" smooth="yes"/>
      <point x="1595" y="117"/>
      <point x="1519" y="100"/>
      <point x="1444" y="100" type="curve" smooth="yes"/>
      <point x="1188" y="100"/>
      <point x="1021" y="258"/>
      <point x="998" y="518" type="curve"/>
    </contour>
    <contour>
      <point x="855" y="887"/>
      <point x="861" y="704" type="curve" smooth="yes"/>
      <point x="862" y="663"/>
      <point x="862" y="604"/>
      <point x="862" y="569" type="curve" smooth="yes"/>
      <point x="862" y="258"/>
      <point x="722" y="108"/>
      <point x="492" y="108" type="curve" smooth="yes"/>
      <point x="409" y="108"/>
      <point x="221" y="126"/>
      <point x="221" y="335" type="curve" smooth="yes"/>
      <point x="221" y="535"/>
      <point x="400" y="566"/>
      <point x="720" y="566" type="curve" smooth="yes"/>
      <point x="877" y="566" type="line"/>
      <point x="877" y="692" type="line"/>
      <point x="718" y="692" type="line" smooth="yes"/>
      <point x="260" y="692"/>
      <point x="83" y="588"/>
      <point x="83" y="329" type="curve" smooth="yes"/>
      <point x="83" y="74"/>
      <point x="261" y="-19"/>
      <point x="487" y="-19" type="curve" smooth="yes"/>
      <point x="719" y="-19"/>
      <point x="894" y="100"/>
      <point x="928" y="303" type="curve"/>
      <point x="938" y="355" type="line"/>
      <point x="998" y="239" type="line"/>
      <point x="978" y="745" type="line" smooth="yes"/>
      <point x="969" y="964"/>
      <point x="831" y="1104"/>
      <point x="591" y="1104" type="curve" smooth="yes"/>
      <point x="364" y="1104"/>
      <point x="184" y="1026"/>
      <point x="175" y="879" type="curve" smooth="yes"/>
      <point x="171" y="817" type="line"/>
      <point x="309" y="817" type="line"/>
      <point x="313" y="854" type="line" smooth="yes"/>
      <point x="323" y="943"/>
      <point x="412" y="984"/>
      <point x="580" y="984" type="curve" smooth="yes"/>
      <point x="772" y="984"/>
    </contour>
  </outline>
</glyph>
<glyph name="divide" format="1">
  <advance width="1196"/>
  <unicode hex="00F7"/>
  <outline>
    <contour>
      <point x="711" y="1116" type="line" smooth="yes"/>
      <point x="711" y="1146"/>
      <point x="700" y="1172"/>
      <point x="677" y="1195" type="curve" smooth="yes"/>
      <point x="654" y="1218"/>
      <point x="628" y="1229"/>
      <point x="598" y="1229" type="curve" smooth="yes"/>
      <point x="568" y="1229"/>
      <point x="542" y="1218"/>
      <point x="519" y="1195" type="curve" smooth="yes"/>
      <point x="496" y="1172"/>
      <point x="485" y="1145"/>
      <point x="485" y="1114" type="curve" smooth="yes"/>
      <point x="485" y="1084"/>
      <point x="496" y="1058"/>
      <point x="519" y="1036" type="curve" smooth="yes"/>
      <point x="542" y="1014"/>
      <point x="568" y="1003"/>
      <point x="598" y="1003" type="curve" smooth="yes"/>
      <point x="628" y="1003"/>
      <point x="654" y="1014"/>
      <point x="677" y="1036" type="curve" smooth="yes"/>
      <point x="700" y="1058"/>
      <point x="711" y="1084"/>
      <point x="711" y="1114" type="curve" smooth="yes"/>
    </contour>
    <contour>
      <point x="1001" y="811" type="line"/>
      <point x="195" y="811" type="line"/>
      <point x="195" y="680" type="line"/>
      <point x="1001" y="680" type="line"/>
    </contour>
    <contour>
      <point x="711" y="407"/>
      <point x="700" y="433"/>
      <point x="677" y="456" type="curve" smooth="yes"/>
      <point x="654" y="479"/>
      <point x="628" y="490"/>
      <point x="598" y="490" type="curve" smooth="yes"/>
      <point x="568" y="490"/>
      <point x="542" y="479"/>
      <point x="519" y="456" type="curve" smooth="yes"/>
      <point x="496" y="433"/>
      <point x="485" y="406"/>
      <point x="485" y="375" type="curve" smooth="yes"/>
      <point x="485" y="345"/>
      <point x="496" y="319"/>
      <point x="519" y="297" type="curve" smooth="yes"/>
      <point x="542" y="275"/>
      <point x="568" y="264"/>
      <point x="598" y="264" type="curve" smooth="yes"/>
      <point x="628" y="264"/>
      <point x="654" y="275"/>
      <point x="677" y="298" type="curve" smooth="yes"/>
      <point x="700" y="321"/>
      <point x="711" y="347"/>
      <point x="711" y="377" type="curve" smooth="yes"/>
    </contour>
  </outline>
</glyph>
<glyph name="ccircumflex" format="1">
  <advance width="1108"/>
  <unicode hex="0109"/>
  <outline>
    <contour>
      <point x="596" y="1659" type="line"/>
      <point x="510" y="1659" type="line"/>
      <point x="260" y="1366" type="line"/>
      <point x="325" y="1298" type="line"/>
      <point x="553" y="1499" type="line"/>
      <point x="782" y="1298" type="line"/>
      <point x="848" y="1366" type="line"/>
    </contour>
    <contour>
      <point x="263" y="141" type="line" smooth="yes"/>
      <point x="370" y="36"/>
      <point x="510" y="-13"/>
      <point x="682" y="-7" type="curve" smooth="yes"/>
      <point x="854" y="-0.999999"/>
      <point x="995.999" y="77"/>
      <point x="1108" y="227" type="curve"/>
      <point x="1025" y="310" type="line"/>
      <point x="908" y="188"/>
      <point x="791" y="124"/>
      <point x="674" y="119" type="curve" smooth="yes"/>
      <point x="557" y="114"/>
      <point x="449" y="157"/>
      <point x="350" y="247" type="curve"/>
      <point x="275" y="329"/>
      <point x="236" y="432"/>
      <point x="233" y="556" type="curve" smooth="yes"/>
      <point x="230" y="680"/>
      <point x="270" y="781"/>
      <point x="353" y="858" type="curve"/>
      <point x="416" y="935"/>
      <point x="509" y="977.999"/>
      <point x="633" y="986.999" type="curve" smooth="yes"/>
      <point x="757" y="995.999"/>
      <point x="850" y="973.999"/>
      <point x="911" y="922" type="curve"/>
      <point x="930" y="907"/>
      <point x="946" y="894"/>
      <point x="959" y="883" type="curve" smooth="yes"/>
      <point x="971.999" y="872"/>
      <point x="977.999" y="867"/>
      <point x="977.999" y="867" type="curve"/>
      <point x="1065" y="961" type="line"/>
      <point x="1065" y="961"/>
      <point x="1058" y="967"/>
      <point x="1044" y="978.999" type="curve" smooth="yes"/>
      <point x="1030" y="990.999"/>
      <point x="1010" y="1007"/>
      <point x="982.999" y="1028" type="curve" smooth="yes"/>
      <point x="904" y="1091"/>
      <point x="789" y="1120"/>
      <point x="638" y="1114" type="curve" smooth="yes"/>
      <point x="487" y="1108"/>
      <point x="361" y="1056"/>
      <point x="260" y="959" type="curve" smooth="yes"/>
      <point x="151" y="856"/>
      <point x="95.9999" y="721"/>
      <point x="95.9999" y="554" type="curve" smooth="yes"/>
      <point x="95.9999" y="387"/>
      <point x="151" y="250"/>
      <point x="261" y="143" type="curve" smooth="yes"/>
    </contour>
  </outline>
</glyph>
<glyph name="Ldot" format="1">
  <advance width="1027"/>
  <unicode hex="013F"/>
  <outline>
    <component base="L"/>
    <component base="periodcentered" xOffset="446" yOffset="189"/>
    <contour>
      <point x="729" y="729" type="move" name="dot"/>
    </contour>
  </outline>
</glyph>
<glyph name="breve" format="1">
  <advance width="870"/>
  <unicode hex="02D8"/>
  <outline>
    <contour>
      <point x="434" y="1446" type="line"/>
      <point x="392" y="1446"/>
      <point x="358" y="1460"/>
      <point x="331" y="1488" type="curve" smooth="yes"/>
      <point x="304" y="1516"/>
      <point x="291" y="1552"/>
      <point x="291" y="1597" type="curve"/>
      <point x="176" y="1597" type="line"/>
      <point x="176" y="1511"/>
      <point x="199" y="1443"/>
      <point x="245" y="1393" type="curve" smooth="yes"/>
      <point x="291" y="1343"/>
      <point x="355" y="1318"/>
      <point x="437" y="1318" type="curve" smooth="yes"/>
      <point x="519" y="1318"/>
      <point x="582" y="1342"/>
      <point x="626" y="1390" type="curve" smooth="yes"/>
      <point x="670" y="1438"/>
      <point x="692" y="1508"/>
      <point x="692" y="1599" type="curve"/>
      <point x="576" y="1599" type="line"/>
      <point x="576" y="1549"/>
      <point x="564" y="1511"/>
      <point x="540" y="1486" type="curve" smooth="yes"/>
      <point x="516" y="1461"/>
      <point x="480" y="1448"/>
      <point x="432" y="1448" type="curve"/>
    </contour>
    <contour>
      <point x="434" y="1084" type="move" name="_top"/>
    </contour>
  </outline>
</glyph>
<glyph name="tilde" format="1">
  <advance width="856"/>
  <unicode hex="02DC"/>
  <outline>
    <contour>
      <point x="750" y="1531" type="line"/>
      <point x="653" y="1562" type="line"/>
      <point x="644" y="1532"/>
      <point x="631" y="1509"/>
      <point x="615" y="1494" type="curve" smooth="yes"/>
      <point x="599" y="1479"/>
      <point x="580" y="1471"/>
      <point x="558" y="1471" type="curve" smooth="yes"/>
      <point x="553" y="1471"/>
      <point x="538" y="1475"/>
      <point x="513" y="1482" type="curve" smooth="yes"/>
      <point x="488" y="1489"/>
      <point x="461" y="1498"/>
      <point x="431" y="1508" type="curve" smooth="yes"/>
      <point x="401" y="1517"/>
      <point x="372" y="1525"/>
      <point x="343" y="1532" type="curve" smooth="yes"/>
      <point x="314" y="1539"/>
      <point x="294" y="1543"/>
      <point x="282" y="1543" type="curve" smooth="yes"/>
      <point x="241" y="1543"/>
      <point x="206" y="1527"/>
      <point x="176" y="1495" type="curve" smooth="yes"/>
      <point x="146" y="1463"/>
      <point x="122" y="1414"/>
      <point x="104" y="1349" type="curve"/>
      <point x="201" y="1320" type="line"/>
      <point x="209" y="1349"/>
      <point x="221" y="1371"/>
      <point x="237" y="1386" type="curve" smooth="yes"/>
      <point x="253" y="1401"/>
      <point x="273" y="1408"/>
      <point x="297" y="1408" type="curve" smooth="yes"/>
      <point x="302" y="1408"/>
      <point x="317" y="1404"/>
      <point x="342" y="1397" type="curve" smooth="yes"/>
      <point x="367" y="1390"/>
      <point x="394" y="1382"/>
      <point x="423" y="1373" type="curve" smooth="yes"/>
      <point x="452" y="1363"/>
      <point x="481" y="1354"/>
      <point x="509" y="1346" type="curve" smooth="yes"/>
      <point x="537" y="1338"/>
      <point x="558" y="1334"/>
      <point x="571" y="1334" type="curve" smooth="yes"/>
      <point x="614" y="1334"/>
      <point x="650" y="1350"/>
      <point x="679" y="1383" type="curve" smooth="yes"/>
      <point x="708" y="1416"/>
      <point x="731" y="1465"/>
      <point x="748" y="1530" type="curve"/>
    </contour>
    <contour>
      <point x="427" y="1084" type="move" name="_top"/>
    </contour>
  </outline>
</glyph>
<glyph name="quoteright" format="1">
  <advance width="477"/>
  <unicode hex="2019"/>
  <outline>
    <contour>
      <point x="276" y="1569" type="line"/>
      <point x="243" y="1569"/>
      <point x="217" y="1559"/>
      <point x="198" y="1539" type="curve" smooth="yes"/>
      <point x="179" y="1519"/>
      <point x="169" y="1495"/>
      <point x="169" y="1468" type="curve" smooth="yes"/>
      <point x="169" y="1444"/>
      <point x="173" y="1419"/>
      <point x="181" y="1392" type="curve" smooth="yes"/>
      <point x="189" y="1365"/>
      <point x="193" y="1342"/>
      <point x="193" y="1323" type="curve" smooth="yes"/>
      <point x="193" y="1292"/>
      <point x="185" y="1261"/>
      <point x="169" y="1230" type="curve" smooth="yes"/>
      <point x="153" y="1199"/>
      <point x="128" y="1168"/>
      <point x="94.9999" y="1137" type="curve"/>
      <point x="144" y="1077" type="line"/>
      <point x="223" y="1135"/>
      <point x="282" y="1197"/>
      <point x="321" y="1262" type="curve" smooth="yes"/>
      <point x="360" y="1327"/>
      <point x="380" y="1395"/>
      <point x="380" y="1466" type="curve" smooth="yes"/>
      <point x="380" y="1495"/>
      <point x="371" y="1519"/>
      <point x="353" y="1538" type="curve" smooth="yes"/>
      <point x="335" y="1557"/>
      <point x="309" y="1567"/>
      <point x="276" y="1567" type="curve"/>
    </contour>
  </outline>
</glyph>
<glyph name="quotedblbase" format="1">
  <advance width="870"/>
  <unicode hex="201E"/>
  <outline>
    <contour>
      <point x="678" y="180" type="line"/>
      <point x="663" y="195"/>
      <point x="652" y="203"/>
      <point x="645" y="204" type="curve" smooth="yes"/>
      <point x="638" y="205"/>
      <point x="627" y="207"/>
      <point x="613" y="210" type="curve"/>
      <point x="603" y="210" type="line"/>
      <point x="594" y="209"/>
      <point x="584" y="208"/>
      <point x="573" y="208" type="curve" smooth="yes"/>
      <point x="562" y="208"/>
      <point x="550" y="202"/>
      <point x="538" y="189" type="curve"/>
      <point x="519" y="171" type="line"/>
      <point x="512" y="160"/>
      <point x="507" y="149"/>
      <point x="504" y="138" type="curve" smooth="yes"/>
      <point x="501" y="127"/>
      <point x="499" y="115"/>
      <point x="499" y="103" type="curve" smooth="yes"/>
      <point x="499" y="91" type="line" smooth="yes"/>
      <point x="499" y="86"/>
      <point x="500" y="78"/>
      <point x="501" y="68" type="curve" smooth="yes"/>
      <point x="502" y="58"/>
      <point x="504" y="47"/>
      <point x="507" y="36" type="curve" smooth="yes"/>
      <point x="510" y="25"/>
      <point x="513" y="15"/>
      <point x="516" y="6" type="curve" smooth="yes"/>
      <point x="519" y="-3"/>
      <point x="522" y="-9.99999"/>
      <point x="525" y="-14" type="curve"/>
      <point x="527" y="-43" type="line"/>
      <point x="527" y="-48"/>
      <point x="527" y="-52"/>
      <point x="527" y="-56" type="curve" smooth="yes"/>
      <point x="527" y="-60"/>
      <point x="526" y="-63"/>
      <point x="525" y="-65" type="curve"/>
      <point x="525" y="-75" type="line"/>
      <point x="516" y="-102"/>
      <point x="506" y="-126"/>
      <point x="496" y="-147" type="curve" smooth="yes"/>
      <point x="486" y="-168"/>
      <point x="471" y="-188"/>
      <point x="452" y="-206" type="curve"/>
      <point x="448" y="-209"/>
      <point x="444" y="-212"/>
      <point x="441" y="-215" type="curve" smooth="yes"/>
      <point x="438" y="-218"/>
      <point x="436" y="-220"/>
      <point x="435" y="-222" type="curve"/>
      <point x="486" y="-280" type="line"/>
      <point x="529" y="-245" type="line"/>
      <point x="583" y="-192" type="line" smooth="yes"/>
      <point x="590" y="-185"/>
      <point x="596" y="-178"/>
      <point x="601" y="-171" type="curve" smooth="yes"/>
      <point x="606" y="-164"/>
      <point x="611" y="-157"/>
      <point x="616" y="-150" type="curve"/>
      <point x="655" y="-90" type="line"/>
      <point x="668" y="-65"/>
      <point x="679" y="-40"/>
      <point x="687" y="-15" type="curve" smooth="yes"/>
      <point x="695" y="9.99999"/>
      <point x="701" y="35"/>
      <point x="705" y="60" type="curve"/>
      <point x="707" y="101" type="line" smooth="yes"/>
      <point x="708" y="122"/>
      <point x="705" y="137"/>
      <point x="699" y="145" type="curve" smooth="yes"/>
      <point x="693" y="153"/>
      <point x="690" y="159"/>
      <point x="691" y="162" type="curve"/>
    </contour>
    <contour>
      <point x="261" y="209" type="line" smooth="yes"/>
      <point x="220" y="209"/>
      <point x="193" y="196"/>
      <point x="180" y="169" type="curve" smooth="yes"/>
      <point x="167" y="142"/>
      <point x="160" y="114"/>
      <point x="160" y="85" type="curve" smooth="yes"/>
      <point x="160" y="78"/>
      <point x="161" y="70"/>
      <point x="163" y="60" type="curve" smooth="yes"/>
      <point x="165" y="50"/>
      <point x="170" y="35"/>
      <point x="178" y="14" type="curve"/>
      <point x="188" y="-33" type="line"/>
      <point x="188" y="-47" type="line" smooth="yes"/>
      <point x="188" y="-72"/>
      <point x="184" y="-94.9999"/>
      <point x="176" y="-115" type="curve" smooth="yes"/>
      <point x="168" y="-135"/>
      <point x="150" y="-164"/>
      <point x="123" y="-201" type="curve"/>
      <point x="97.9999" y="-225" type="line"/>
      <point x="150" y="-283" type="line"/>
      <point x="180" y="-261"/>
      <point x="205" y="-240"/>
      <point x="225" y="-220" type="curve" smooth="yes"/>
      <point x="245" y="-200"/>
      <point x="261" y="-182"/>
      <point x="274" y="-167" type="curve"/>
      <point x="286" y="-151"/>
      <point x="295" y="-137"/>
      <point x="301" y="-125" type="curve" smooth="yes"/>
      <point x="307" y="-113"/>
      <point x="311" y="-105"/>
      <point x="314" y="-101" type="curve"/>
      <point x="325" y="-81" type="line"/>
      <point x="344" y="-41"/>
      <point x="356" y="-9.99999"/>
      <point x="360" y="12" type="curve" smooth="yes"/>
      <point x="364" y="34"/>
      <point x="368" y="50"/>
      <point x="371" y="61" type="curve"/>
      <point x="373" y="111" type="line"/>
      <point x="370" y="132"/>
      <point x="364" y="150"/>
      <point x="356" y="164" type="curve" smooth="yes"/>
      <point x="348" y="178"/>
      <point x="337" y="188"/>
      <point x="324" y="195" type="curve"/>
      <point x="323" y="195"/>
      <point x="317" y="197"/>
      <point x="307" y="202" type="curve" smooth="yes"/>
      <point x="297" y="207"/>
      <point x="282" y="209"/>
      <point x="263" y="209" type="curve" smooth="yes"/>
    </contour>
  </outline>
</glyph>
<glyph name="dagger" format="1">
  <advance width="905"/>
  <unicode hex="2020"/>
  <outline>
    <contour>
      <point x="39" y="1034" type="line"/>
      <point x="375" y="1034" type="line"/>
      <point x="375" y="0" type="line"/>
      <point x="530" y="0" type="line"/>
      <point x="530" y="1034" type="line"/>
      <point x="866" y="1034" type="line"/>
      <point x="866" y="1169" type="line"/>
      <point x="530" y="1171" type="line"/>
      <point x="530" y="1495" type="line"/>
      <point x="375" y="1495" type="line"/>
      <point x="375" y="1171" type="line"/>
      <point x="39" y="1171" type="line"/>
    </contour>
  </outline>
</glyph>
<glyph name="guilsinglright" format="1">
  <advance width="549"/>
  <unicode hex="203A"/>
  <outline>
    <contour>
      <point x="289" y="657" type="line"/>
      <point x="63" y="396" type="line"/>
      <point x="164" y="301" type="line"/>
      <point x="432" y="610" type="line"/>
      <point x="432" y="705" type="line"/>
      <point x="164" y="1018" type="line"/>
      <point x="66" y="951" type="line"/>
    </contour>
  </outline>
</glyph>
